# xmcd
#
# Track frame offsets:
#	150
#	13470
#	27609
#	42016
#	57222
#	74005
#	90130
#	104337
#	119410
#	135751
#	151136
#	166052
#	180359
#
# Disc length: 2551 seconds
#
# Revision: 2
# Processed by: cddbd v1.5.2PL0 Copyright (c) Steve Scherf et al.
# Submitted via: audiograbber 1.83.01
#
DISCID=9d09f50d
DTITLE=George Strait - Twang
DYEAR=2009
DGENRE=Country
TTITLE0=Twang
TTITLE1=Where Have I Been All My Life
TTITLE2=Gotta Get To You
TTITLE3=Easy As You Go
TTITLE4=Living For The Night
TTITLE5=Same Kind Of Crazy
TTITLE6=Out Of Sight Out Of Mind
TTITLE7=Arkansas Dave
TTITLE8=The Breath You Take
TTITLE9=He's Got That Something Special
TTITLE10=Hot Grease And Zydeco
TTITLE11=Beautiful Day For Goodbye
TTITLE12=El Rey
EXTD=
EXTT0=
EXTT1=
EXTT2=
EXTT3=
EXTT4=
EXTT5=
EXTT6=
EXTT7=
EXTT8=
EXTT9=
EXTT10=
EXTT11=
EXTT12=
PLAYORDER=
